# xmcd
#
# Track frame offsets:
#	150
#	14801
#	27508
#	44506
#	57165
#	66337
#	82444
#	96193
#	113673
#	127191
#	131513
#	151607
#	163669
#	170310
#	178454
#	186328
#	205534
#	231670
#	253421
#	257955
#	276940
#
# Disc length: 3939 seconds
#
# Revision: 1
# Processed by: cddbd v1.4PL0 Copyright (c) Steve Scherf et al.
# Submitted via: audiograbber 1.80.04
#
DISCID=480f6115
DTITLE=Shirley Bassey - Live at Carnegie Hall
DYEAR=1900
DGENRE=
TTITLE0=Goldfinger
TTITLE1=Where am I Going?
TTITLE2=I Capricorn
TTITLE3=Let Me Sing and I'm Happy
TTITLE4=Johnny One Note
TTITLE5=For All I Know
TTITLE6=I'd Like to Hate Myself in the Morning
TTITLE7=I Who Have Nothing
TTITLE8=Day by Day
TTITLE9=Narration
TTITLE10=And I Love You So
TTITLE11=Diamonds Are Forever
TTITLE12=Narration
TTITLE13=Big Spender
TTITLE14=Never Never Never
TTITLE15=You and I
TTITLE16=Something
TTITLE17=Tabs
TTITLE18=This is my Life
TTITLE19=Tabs
TTITLE20=The Party's Over
EXTD=
EXTT0=
EXTT1=
EXTT2=
EXTT3=
EXTT4=
EXTT5=
EXTT6=
EXTT7=
EXTT8=
EXTT9=
EXTT10=
EXTT11=
EXTT12=
EXTT13=
EXTT14=
EXTT15=
EXTT16=
EXTT17=
EXTT18=
EXTT19=
EXTT20=
PLAYORDER=
